<svg version="1.2" baseProfile="tiny-ps" xmlns="http://www.w3.org/2000/svg" width="754" height="754"><style></style><path fill-rule="evenodd" d="M208 269c124-37 254 46 283 157 30 115-13 216-135 271-119 54-259-15-305-129a231 231 0 01157-299zm-14 236c8 37 36 84 92 74s59-75 57-97-15-90-100-71c-37 8-57 57-49 94z" fill="#1999d6"/><path d="M607 476c65-12 109 32 110 79 1 44-29 80-62 86-36 6-90 8-111-58a89 89 0 0163-107z" fill="#d83f28"/><path d="M219 42a90 90 0 01108 70c3 40-15 88-68 97s-97-17-106-69c-9-54 33-92 66-98z" fill="#67af2e"/></svg>