<svg version="1.2" xmlns="http://www.w3.org/2000/svg" viewBox="0 0 843 103" width="843" height="103"><style>.a{fill:#fff}.b{fill:#29a5db}.c{fill:#61ba47}.d{fill:#ee482c}</style><path fill-rule="evenodd" class="a" d="m1 56.7c1.4-8 5.6-16.1 12.4-16.1 8.3 0 10.8 8.3 10.8 17.4 0 7.8-0.4 16.7-0.9 25.9l-6.5-0.6-0.6-2.8c-2.1 1.3-4.5 2.4-6.9 2.4-5.8 0-9.3-4.2-9.3-10.3 0-8 7.6-13.4 15.5-13.5v-2.3c0-3-0.3-6.8-3-6.8-2.1 0-3.8 4-4.4 7.4zm14.2 10.3c-5.3 0.5-7.3 3.4-7.3 5.5 0 1.7 1.1 2.7 2.9 2.7 1.2 0 2.6-0.2 4.3-1zm45.7-47.2c-0.6 11.3-0.9 19.4-0.9 30.8 3-5.4 6.6-9.1 10-9.1 5.4 0 7.3 8.2 7.3 15 0 12.6-3.9 27.2-10.9 27.2-2.9 0-5.9-1.5-8-4.8 0 1.2 0 2.3 0.1 3.4l-6.8-0.7c-0.5-10.3-0.5-19.5-0.5-31 0-11.5 0.4-20.5 0.9-31.6zm-0.8 52.2c1.1 1.8 1.8 2.6 3.7 2.6 2.8 0 4.9-8.5 4.9-14.3 0-4.4-0.3-7.6-2.3-7.6-1.8 0-3.8 3.2-6.4 12.6 0 2.1 0.1 4.6 0.1 6.7zm30.8-3.8c0.3 4.8 1.6 7.6 3.1 7.6 2.6 0 4.8-3.5 6.2-6.3l5.9 3.9c-2.2 4.4-5.8 10.4-12.9 10.4-6.2 0-11.5-6.2-11.5-17 0-10.3 3.2-25.8 14-25.8 11.3 0 11.1 17.3 11.2 23.8-3.9 1.2-11 2.7-16 3.4zm0.1-6.2q3.6-0.9 7.2-1.8c0-5.5-0.7-10.8-2.5-10.8-2.4 0-4.4 6.2-4.7 12.6zm35.5-7.1c0-3.8-1.3-5.1-2.4-5.1-1.5 0-3 1.8-3 4.2 0 3.3 0.7 4.6 3.7 6.8 3.2 2 8.6 5.5 8.6 11.7 0 7.5-5.6 11.3-10.8 11.3-5.6 0-10.1-4.1-12.5-8.6l4.1-5.3c1.7 3.1 4.1 6 6.5 6 1.4 0 2.9-1 2.9-2.8 0-1.9-1.5-3.8-3.6-5-4.1-2.5-8.1-5.7-8.1-12.8 0-7.7 6.5-14 12.2-14 5.9 0 9.6 4.9 9.6 12.6 0 1.5-0.1 3.2-0.4 5l-7.1-0.7q0.3-1.9 0.3-3.3zm10.1-6.5c1.7-0.4 3.7-0.8 5.8-1.1 0.2-6.4 0.4-12.5 0.6-18.6l9.2 1c-0.3 5.6-0.5 11-0.7 16.5 2-0.1 3.8-0.1 5.5-0.1v8.1c-1.7 0-3.7 0-5.7 0.1-0.2 8.6-0.2 17.8-0.2 28.9l-9.2-1c0-10.2 0.1-19 0.3-27.2-1.6 0-3.1 0.3-4.4 0.4zm59.6 26.1c-2.4 4.8-5.2 8.1-8.6 8.1-5.2 0-9.6-3.8-9.6-13.3 0-14.2 7.5-28.1 13.1-28.1 3.7 0 6.8 2.1 9 4.4l5.4 0.9c-0.5 3-1 10.6-1 22.7 0 14.4-2.6 33.5-12.5 33.5-6.9 0-12-6.9-14.7-12.7l6.5-3.1c1.5 3.2 3.8 6.5 7.1 6.5 3.2 0 5.3-8.5 5.3-18.9zm0.4-21.9c-1.2-1.3-2.2-2.6-3.6-2.6-2.4 0-5.8 9.7-5.8 19.3 0 3.8 1.1 5.4 2.2 5.4 1.3 0 5.6-5.7 7.1-15.5zm24.8-10.6v41.2l-8.8-0.9v-41.3zm0.5-15l-0.8 9.6-8.6-1.2 0.7-9.5zm25.2 24.9c-0.8-0.6-1.9-0.9-3.1-0.9-2.4 0-3.9 3.7-4.9 9.1 0.1 3 0.2 6 0.2 9.1 0 4.8-0.1 9.6-0.3 14.7l-9-0.8c0.1-4.2 0.2-8.4 0.2-13.9 0-9.1-0.3-17.8-1.4-24.3l5.8 0.6c0.4 1.8 0.8 3.1 1.3 4.4 2.3-5.5 5.1-9 7.6-9 2.3 0 4.3 1.4 5.6 3.1zm16.9-31.9c-0.7 13-1.2 27.2-1.2 41.8 0 7.3 0 14.8 0.4 21.8l-9.2-0.9c-0.2-6.7-0.3-14-0.3-20.9 0-14.6 0.5-29.6 1.2-42.6zm50-0.2c0.1 6.1 0.1 11.8 0.1 17.5 0 15.6-0.4 30-1.2 45.8l-6.9-0.6c0 0-0.2-3.5-0.5-8.1-2.1 4.6-4.4 7.4-7.2 7.4-8.5 0-10.6-6.8-10.6-15.8 0-10.1 4.5-25 10-25 2.8 0 5.1 0.8 7.4 2 0-3.5 0-6.9 0-10.6 0-4.1 0-8.4-0.2-13.5zm-8.7 31.2c-1.3-1.1-2.6-1.7-3.8-1.7-2.8 0-4.8 10-4.8 16.7 0 3.7 0.6 6.4 2.7 6.4 1.3 0 3.8-5.2 5.8-13.2zm15.6 5.5c1.4-8 5.6-16 12.5-16 8.2 0 10.7 8.3 10.7 17.3 0 7.8-0.3 16.8-0.9 25.9l-6.5-0.6-0.6-2.7c-2 1.3-4.4 2.3-6.9 2.3-5.8 0-9.3-4.1-9.3-10.3 0-8 7.7-13.3 15.5-13.5v-2.3c0-2.9-0.3-6.8-2.9-6.8-2.1 0-3.8 4.1-4.4 7.5zm14.4 10.4c-5.4 0.6-7.4 3.5-7.4 5.5 0 1.7 1.2 2.8 2.9 2.8 1.2 0 2.6-0.3 4.3-1.1z"/><path fill-rule="evenodd" class="b" d="m547.5 28c15.7-1 27 9.4 31.5 20.4 2.8 6.7 2.7 17-0.2 23.5-4.2 9.4-13.3 16.4-23.7 18.4-24.2 4.8-47.3-19.5-34.9-44.6 4.4-8.7 13.6-16.9 27.3-17.7zm-7.8 25.9c-4.3 8.9 2.9 22 13.1 17.6 10.2-4.3 8.4-24.6-5.1-23.1-4.4 0.5-6.8 3.2-8 5.5z"/><path class="c" d="m499.2 0.2c9.1-1.6 17.4 6.8 13.5 16.4-4.5 10.9-24 9.3-23.3-5.3 0.3-5.5 4.1-10.1 9.8-11.1z"/><path class="d" d="m828.1 67.1c9.2-1.6 17.5 6.8 13.6 16.4-4.5 10.9-24 9.3-23.3-5.3 0.3-5.6 4.1-10.2 9.7-11.1z"/><path class="a" d="m795.5 86.2c-8.5 10.8-30.9 8.5-38.8-3.9-5.7-9.1-4.8-19.9-4.7-35.5 0-5.3-1.2-13.3 1.5-14.7 2.2-1.2 7.1-0.5 11.1-0.4 2.7 0 7.7-0.5 9.1 0.9 1.4 1.5 0.9 6.7 0.9 9.8-0.1 4.4 0 2.3-0.1 6.3 0 7.4-1 16.5 0.6 20.6 1.3 3.2 6.5 5.4 11 3.3 5.9-2.9 4-17 4-26.8 0-4.1-1.4-16 1.5-17.8 1.8-1 7-0.4 10.2-0.4 3.5 0 8.3-0.7 10 0.8 2 1.6 1.1 10.7 1.1 15.4 0 12.1-0.1 20.3-0.1 32.6 0 4.5 0.9 13.4-1.3 15.2-1.1 0.9-10.7 1.5-13.2 0.4-2-0.9-1.8-3.4-2.8-5.8z"/><path class="a" d="m611.4 27.5c3.9 1.7 8.8-1.7 11.1 1.9 1 1.5 2.3 6.1 2.3 8.7 0 3 1.1 7.4-0.3 9-2.3 2.6-9 0.2-13.1 1.1 1.2 7.4-2.4 21.6 2.7 23.7 3.4 1.4 5.8-0.9 8.2 0 1.9 0.7 2.2 4.1 2.7 6.9 0.4 2.5 1.5 6 0.9 8-0.9 2.7-6.7 4-10.9 4.2-17.4 1.1-23.9-6.7-25.1-21.7-0.5-6.8 0-12.8-0.2-21.1-3.9-1-8.1 1.6-10.4-1.1-1.6-1.8-0.7-6.7-0.7-9.1 0-2.9-0.6-7.7 0.7-9.1 2-2.5 6.5-0.4 10.2-1.1 0.4-3.7 0.2-7.3 0.2-12 0-4.8-1.4-12.6 2.9-13.1 2.6-0.3 5.9 0 9.5 0 2.8 0 7.1-0.4 8.5 1.1 1.6 1.9 0.8 7.9 0.8 11.5 0 4.6 0 8.3 0 12.2z"/><path class="a" d="m713.4 46.3c2.5-2.2 4.4-5.3 7.1-8.8 1.9-2.5 2.3-5 5.4-5.9 3.1-0.8 8.3-0.2 12.4-0.2 4.3 0 9.7-0.7 10 2.7 0.1 2.2-3.3 5.5-4.7 7.3-5.2 6.9-7.6 10.9-12.7 17.6 4.9 7.2 9.9 13.8 15.3 21.3 1.4 1.9 4.7 5.1 4.5 7.6-0.4 3.2-6.2 2.4-10.5 2.4-3.9 0-9.6 0.8-12.6-0.2-2.7-0.9-5.7-6.7-7.4-9.1-2.6-3.7-4.3-6.3-6.8-9.3 0 3 0 5.9 0 9.5 0 2.7 0.7 6.9-1.1 8.4-1.8 1.5-6.7 0.7-9.8 0.7-3.7 0-7.2 0.3-9.8-0.4-1.7-2.4-1.1-6.5-1.1-10.3 0-21.8 0-44.6 0-67.4 0-4.7-0.8-8.9 2.9-9.4 3-0.3 16.2-0.9 18 0.9 1.4 1.4 0.9 6.7 0.9 10 0 11.2 0 21.9 0 32.6z"/><path class="a" d="m444.4 88.6c-3.6 0.4-6.2 0.2-9.5 0.2-2.8 0-7.5 0.8-9.4-0.4-2.2-1.4-1.3-10.2-1.3-14.4 0-11.8 0-20 0-31.5 0-4.5-0.8-12.9 1.1-14.5 1.6-1.3 9.9-1.4 12.4-0.2 2 0.9 2.3 3 2.7 5.3 2-1 3-2.7 4.9-3.7 7.5-4.4 20.6-3.5 27.3 1.3 12.5 8.9 9.8 28.8 9.8 49.9 0 1.8 0.4 6.4-0.9 7.6-1.5 1.3-6.8 0.6-10 0.6-3.6 0-8.2 0.8-9.8-0.6-1.3-1.2-0.9-6.4-0.9-9.3 0-8 1.6-25-1.3-29.3-1.5-2.3-6-3.8-9.8-2-5.5 2.5-3.7 15.7-3.7 24.6 0 3 0 6.2 0 9.1 0 2.8 0.4 5.8-1.6 7.3z"/><path fill-rule="evenodd" class="a" d="m666.9 84.5c-1.8 1.1-3.1 2.9-5.1 4-10.6 5.8-27 1.4-30.2-9.5-2.5-8.4-1.1-17 4.4-21.3 6-4.8 17.6-5.2 26.7-1.8-0.4-7.6-7.6-10.3-15.8-9.3-2.9 0.3-6.4 1.4-8.2 0.2-1.6-1-2.2-4.7-3.1-7.3-0.8-2.3-2.6-5.7-1.4-8.2 1.1-2.1 5.8-3.1 8.3-3.8 11.1-3.1 26.3-1.7 33.5 4.4 4.9 4.2 7.9 10.9 8.4 18.7 0.6 9.1 0 20.9 0 30.6 0 1.9 0.5 7.2-0.9 8.4-1.1 1-11.6 1.5-14 0.5-1.9-0.8-2.1-3.5-2.6-5.6zm-16.2-12.8c1.5 3.2 9.9 2.6 12.2 0.2q0-1.9 0-3.8c-3-3.5-15.1-2.6-12.2 3.6z"/><path class="a" d="m492.8 29.6c1.7-0.6 6.4-0.2 10-0.2 2.2 0 7-0.8 8.6 0.8 1.4 1.4 0.9 9.8 0.9 14.7 0 11.5 0 19.1 0 30.8 0 4.4 0.9 12.9-0.9 14.5-1.8 1.6-7.2 0.6-10.2 0.6-3 0-8.5 0.6-9.7-0.9-1.6-1.8-0.7-11.3-0.7-14.8 0-8.4 0-23 0-31.1 0-3.4-1-12.9 1.5-14.2 0.2-0.1 0.3-0.2 0.5-0.2z"/><path class="a" d="m417 41c0 17 1.3 31-6.4 40.1-4.5 5.3-11.3 7.8-19.5 7.9h-4.7c-8.9 0.2-16.1-2.3-20.8-7.9-7.8-9.1-6.4-23.1-6.4-40.1 0-5.6-1.2-13.4 2.4-14.2 2.4-0.6 6 0 9.6 0 3.2 0 7.2-0.5 8.6 0.6 2.4 1.9 1.1 15 1.1 19.5 0 8.8-1.8 20.2 3.4 22.7 0.8 0.4 2.3 0.7 3.8 0.8 1.5-0.1 2.9-0.4 3.8-0.8 5.1-2.5 3.3-13.9 3.3-22.7 0-4.5-1.2-17.6 1.2-19.5 1.3-1.1 5.4-0.6 8.6-0.6 3.6 0 7.1-0.6 9.6 0 3.5 0.8 2.4 8.6 2.4 14.2z"/></svg>